<svg width="21" height="24" viewBox="0 0 21 24" fill="none" xmlns="http://www.w3.org/2000/svg">
<path d="M20.5 24H0.5V0H20.5V24Z" stroke="#E5E7EB"/>
<g clip-path="url(#clip0_2148_6769)">
<path d="M6.99985 15C10.5905 15 13.4999 12.5375 13.4999 9.5C13.4999 6.4625 10.5905 4 6.99985 4C3.40923 4 0.499854 6.4625 0.499854 9.5C0.499854 10.7063 0.959229 11.8219 1.73735 12.7312C1.62798 13.025 1.46548 13.2844 1.2936 13.5031C1.1436 13.6969 0.990479 13.8469 0.877979 13.95C0.821729 14 0.774854 14.0406 0.743604 14.0656C0.727979 14.0781 0.715479 14.0875 0.709229 14.0906L0.702979 14.0969C0.531104 14.225 0.456104 14.45 0.524854 14.6531C0.593604 14.8562 0.784229 15 0.999854 15C1.6811 15 2.3686 14.825 2.94048 14.6094C3.22798 14.5 3.49673 14.3781 3.7311 14.2531C4.69048 14.7281 5.8061 15 6.99985 15ZM14.4999 9.5C14.4999 13.0094 11.403 15.6531 7.73423 15.9688C8.4936 18.2937 11.0124 20 13.9999 20C15.1936 20 16.3092 19.7281 17.2717 19.2531C17.5061 19.3781 17.7717 19.5 18.0592 19.6094C18.6311 19.825 19.3186 20 19.9999 20C20.2155 20 20.4092 19.8594 20.4749 19.6531C20.5405 19.4469 20.4686 19.2219 20.2936 19.0938L20.2874 19.0875C20.2811 19.0812 20.2686 19.075 20.253 19.0625C20.2217 19.0375 20.1749 19 20.1186 18.9469C20.0061 18.8438 19.853 18.6938 19.703 18.5C19.5311 18.2812 19.3686 18.0187 19.2592 17.7281C20.0374 16.8219 20.4967 15.7063 20.4967 14.4969C20.4967 11.5969 17.8436 9.21875 14.478 9.0125C14.4905 9.17188 14.4967 9.33437 14.4967 9.49687L14.4999 9.5Z" fill="#1E3A8A"/>
</g>
<defs>
<clipPath id="clip0_2148_6769">
<path d="M0.5 4H20.5V20H0.5V4Z" fill="white"/>
</clipPath>
</defs>
</svg>
