<svg width="20" height="16" viewBox="0 0 20 16" fill="none" xmlns="http://www.w3.org/2000/svg">
<g clip-path="url(#clip0_2148_2203)">
<path d="M9.64058 4.22813C9.86245 4.03125 9.94995 3.72188 9.83433 3.44688C9.76245 3.28125 9.68433 3.11875 9.59683 2.9625L9.49995 2.79375C9.4062 2.6375 9.30308 2.48438 9.1937 2.3375C9.01558 2.1 8.70308 2.02187 8.42183 2.11562L7.54058 2.40625C7.2062 2.13125 6.82183 1.90625 6.40933 1.75312L6.2187 0.846875C6.15933 0.55625 5.93433 0.325 5.64058 0.290625C5.43433 0.2625 5.22495 0.25 5.01245 0.25H4.99058C4.77808 0.25 4.5687 0.2625 4.36245 0.2875C4.0687 0.321875 3.8437 0.55625 3.78433 0.84375L3.5937 1.75312C3.17808 1.90937 2.79683 2.13125 2.46245 2.40625L1.57808 2.11875C1.29683 2.025 0.984327 2.10313 0.806202 2.34063C0.696827 2.4875 0.593702 2.64062 0.496827 2.79688L0.403077 2.9625C0.315577 3.11875 0.237452 3.28125 0.165577 3.45C0.049952 3.72187 0.137452 4.03125 0.359327 4.23125L1.05308 4.85C1.0187 5.05937 0.999952 5.27812 0.999952 5.5C0.999952 5.72188 1.0187 5.94062 1.05308 6.15312L0.359327 6.77187C0.137452 6.96875 0.049952 7.27812 0.165577 7.55312C0.237452 7.71875 0.315577 7.88125 0.403077 8.04062L0.496827 8.20312C0.590577 8.3625 0.693702 8.5125 0.806202 8.65938C0.984327 8.89688 1.29683 8.975 1.57808 8.88125L2.45933 8.59062C2.7937 8.86562 3.17808 9.09062 3.59058 9.24375L3.7812 10.1531C3.84058 10.4437 4.06558 10.675 4.35933 10.7094C4.5687 10.7344 4.7812 10.7469 4.99683 10.7469C5.21245 10.7469 5.42495 10.7344 5.63433 10.7094C5.92808 10.675 6.15308 10.4406 6.21245 10.1531L6.40308 9.24375C6.8187 9.0875 7.19995 8.86562 7.53433 8.59062L8.41558 8.88125C8.69683 8.975 9.00933 8.89688 9.18745 8.65938C9.29683 8.5125 9.39995 8.3625 9.4937 8.20312L9.59058 8.03438C9.67808 7.87813 9.7562 7.71563 9.82808 7.55C9.9437 7.27813 9.8562 6.96875 9.63433 6.76875L8.94058 6.15C8.97495 5.9375 8.9937 5.71875 8.9937 5.49687C8.9937 5.275 8.97495 5.05625 8.94058 4.84375L9.63433 4.225L9.64058 4.22813ZM3.49995 5.5C3.49995 5.10218 3.65799 4.72064 3.93929 4.43934C4.2206 4.15804 4.60213 4 4.99995 4C5.39778 4 5.77931 4.15804 6.06061 4.43934C6.34192 4.72064 6.49995 5.10218 6.49995 5.5C6.49995 5.89782 6.34192 6.27936 6.06061 6.56066C5.77931 6.84196 5.39778 7 4.99995 7C4.60213 7 4.2206 6.84196 3.93929 6.56066C3.65799 6.27936 3.49995 5.89782 3.49995 5.5ZM15.7718 15.6406C15.9687 15.8625 16.2781 15.95 16.5531 15.8344C16.7187 15.7625 16.8812 15.6844 17.0375 15.5969L17.2062 15.5C17.3625 15.4062 17.5156 15.3031 17.6625 15.1938C17.9 15.0156 17.9781 14.7031 17.8843 14.4219L17.5937 13.5406C17.8687 13.2062 18.0937 12.8219 18.2468 12.4094L19.1562 12.2188C19.4468 12.1594 19.6781 11.9344 19.7125 11.6406C19.7375 11.4312 19.75 11.2188 19.75 11.0031C19.75 10.7875 19.7375 10.575 19.7125 10.3656C19.6781 10.0719 19.4437 9.84688 19.1562 9.7875L18.2468 9.59375C18.0906 9.17813 17.8687 8.79688 17.5937 8.4625L17.8843 7.58125C17.9781 7.3 17.9 6.9875 17.6625 6.80937C17.5156 6.7 17.3625 6.59688 17.2062 6.5L17.0406 6.40625C16.8843 6.31875 16.7218 6.24062 16.5531 6.16875C16.2812 6.05312 15.9718 6.14062 15.7718 6.3625L15.1531 7.05625C14.9406 7.02187 14.7218 7.00313 14.5 7.00313C14.2781 7.00313 14.0593 7.02187 13.8468 7.05625L13.2281 6.3625C13.0312 6.14062 12.7218 6.05312 12.4468 6.16875C12.2812 6.24062 12.1187 6.31875 11.9593 6.40625L11.7968 6.5C11.6375 6.59375 11.4875 6.69687 11.3406 6.80937C11.1031 6.9875 11.025 7.3 11.1187 7.58125L11.4093 8.4625C11.1343 8.79688 10.9093 9.18125 10.7562 9.59375L9.84683 9.78125C9.5562 9.84062 9.32495 10.0656 9.29058 10.3594C9.26558 10.5688 9.25308 10.7812 9.25308 10.9969C9.25308 11.2125 9.26558 11.425 9.29058 11.6344C9.32495 11.9281 9.55933 12.1531 9.84683 12.2125L10.7562 12.4031C10.9125 12.8187 11.1343 13.2 11.4093 13.5344L11.1187 14.4156C11.025 14.6969 11.1031 15.0094 11.3406 15.1875C11.4875 15.2969 11.6375 15.4 11.7968 15.4937L11.9656 15.5906C12.1218 15.6781 12.2843 15.7563 12.45 15.8281C12.7218 15.9438 13.0312 15.8562 13.2312 15.6344L13.85 14.9406C14.0625 14.975 14.2812 14.9937 14.5031 14.9937C14.725 14.9937 14.9437 14.975 15.1562 14.9406L15.775 15.6344L15.7718 15.6406ZM14.5 9.5C14.6969 9.5 14.892 9.5388 15.074 9.61418C15.256 9.68956 15.4213 9.80005 15.5606 9.93934C15.6999 10.0786 15.8104 10.244 15.8858 10.426C15.9612 10.608 16 10.803 16 11C16 11.197 15.9612 11.392 15.8858 11.574C15.8104 11.756 15.6999 11.9214 15.5606 12.0607C15.4213 12.1999 15.256 12.3104 15.074 12.3858C14.892 12.4612 14.6969 12.5 14.5 12.5C14.303 12.5 14.1079 12.4612 13.9259 12.3858C13.7439 12.3104 13.5786 12.1999 13.4393 12.0607C13.3 11.9214 13.1895 11.756 13.1141 11.574C13.0388 11.392 13 11.197 13 11C13 10.803 13.0388 10.608 13.1141 10.426C13.1895 10.244 13.3 10.0786 13.4393 9.93934C13.5786 9.80005 13.7439 9.68956 13.9259 9.61418C14.1079 9.5388 14.303 9.5 14.5 9.5Z" fill="#005EA2"/>
</g>
<defs>
<clipPath id="clip0_2148_2203">
<path d="M0 0H20V16H0V0Z" fill="white"/>
</clipPath>
</defs>
</svg>
