<svg width="18" height="16" viewBox="0 0 18 16" fill="none" xmlns="http://www.w3.org/2000/svg">
<path d="M18 16H0V0H18V16Z" stroke="#E5E7EB"/>
<path d="M0 3.51518V13.1964C0 13.7589 0.315625 14.2902 0.84375 14.4871C3.5625 15.5027 6.28125 14.8089 9 14.1152C11.4937 13.4808 13.9875 12.8433 16.4781 13.5246C17.1969 13.7214 18 13.2277 18 12.4808V2.80268C18 2.24018 17.6844 1.70893 17.1562 1.51205C14.4375 0.496426 11.7188 1.19018 9 1.88393C6.50625 2.5183 4.0125 3.15268 1.52188 2.47143C0.8 2.27455 0 2.7683 0 3.51518ZM9 10.9996C7.61875 10.9996 6.5 9.6558 6.5 7.99955C6.5 6.3433 7.61875 4.99955 9 4.99955C10.3813 4.99955 11.5 6.3433 11.5 7.99955C11.5 9.6558 10.3813 10.9996 9 10.9996ZM2 10.9996C3.10313 10.9996 4 11.8964 4 12.9996H2V10.9996ZM4 4.49955C4 5.60268 3.10313 6.49955 2 6.49955V4.49955H4ZM16 9.49955V11.4996H14C14 10.3964 14.8969 9.49955 16 9.49955ZM14 2.99955H16V4.99955C14.8969 4.99955 14 4.10268 14 2.99955Z" fill="#005EA2"/>
</svg>
