<svg width="15" height="20" viewBox="0 0 15 20" fill="none" xmlns="http://www.w3.org/2000/svg">
<path d="M14.5 20H0.5V0H14.5V20Z" stroke="#E5E7EB"/>
<g clip-path="url(#clip0_2148_6694)">
<path d="M8.375 3.625C8.375 3.14102 7.98398 2.75 7.5 2.75C7.01602 2.75 6.625 3.14102 6.625 3.625V10.2613L4.61797 8.2543C4.27617 7.9125 3.72109 7.9125 3.3793 8.2543C3.0375 8.59609 3.0375 9.15117 3.3793 9.49297L6.8793 12.993C7.22109 13.3348 7.77617 13.3348 8.11797 12.993L11.618 9.49297C11.9598 9.15117 11.9598 8.59609 11.618 8.2543C11.2762 7.9125 10.7211 7.9125 10.3793 8.2543L8.375 10.2613V3.625ZM2.25 12.375C1.28477 12.375 0.5 13.1598 0.5 14.125V15C0.5 15.9652 1.28477 16.75 2.25 16.75H12.75C13.7152 16.75 14.5 15.9652 14.5 15V14.125C14.5 13.1598 13.7152 12.375 12.75 12.375H9.97461L8.73594 13.6137C8.05234 14.2973 6.94492 14.2973 6.26133 13.6137L5.02539 12.375H2.25ZM12.3125 13.9062C12.4865 13.9062 12.6535 13.9754 12.7765 14.0985C12.8996 14.2215 12.9688 14.3885 12.9688 14.5625C12.9688 14.7365 12.8996 14.9035 12.7765 15.0265C12.6535 15.1496 12.4865 15.2188 12.3125 15.2188C12.1385 15.2188 11.9715 15.1496 11.8485 15.0265C11.7254 14.9035 11.6562 14.7365 11.6562 14.5625C11.6562 14.3885 11.7254 14.2215 11.8485 14.0985C11.9715 13.9754 12.1385 13.9062 12.3125 13.9062Z" fill="black"/>
</g>
<defs>
<clipPath id="clip0_2148_6694">
<path d="M0.5 2.75H14.5V16.75H0.5V2.75Z" fill="white"/>
</clipPath>
</defs>
</svg>
