<svg width="18" height="17" viewBox="0 0 18 17" fill="none" xmlns="http://www.w3.org/2000/svg">
<g clip-path="url(#clip0_2263_5668)">
<path d="M8.99995 1.5C6.47495 1.5 4.45308 2.65 2.9812 4.01875C1.5187 5.375 0.540576 7 0.0780762 8.11562C-0.0250488 8.3625 -0.0250488 8.6375 0.0780762 8.88437C0.540576 10 1.5187 11.625 2.9812 12.9812C4.45308 14.35 6.47495 15.5 8.99995 15.5C11.525 15.5 13.5468 14.35 15.0187 12.9812C16.4812 11.6219 17.4593 10 17.9249 8.88437C18.0281 8.6375 18.0281 8.3625 17.9249 8.11562C17.4593 7 16.4812 5.375 15.0187 4.01875C13.5468 2.65 11.525 1.5 8.99995 1.5ZM4.49995 8.5C4.49995 7.30653 4.97406 6.16193 5.81797 5.31802C6.66188 4.47411 7.80648 4 8.99995 4C10.1934 4 11.338 4.47411 12.1819 5.31802C13.0258 6.16193 13.5 7.30653 13.5 8.5C13.5 9.69347 13.0258 10.8381 12.1819 11.682C11.338 12.5259 10.1934 13 8.99995 13C7.80648 13 6.66188 12.5259 5.81797 11.682C4.97406 10.8381 4.49995 9.69347 4.49995 8.5ZM8.99995 6.5C8.99995 7.60313 8.10308 8.5 6.99995 8.5C6.77808 8.5 6.56558 8.4625 6.36558 8.39687C6.1937 8.34062 5.9937 8.44688 5.99995 8.62813C6.00933 8.84375 6.04058 9.05937 6.09995 9.275C6.52808 10.875 8.17495 11.825 9.77495 11.3969C11.375 10.9688 12.325 9.32188 11.8968 7.72188C11.55 6.425 10.4031 5.55312 9.12808 5.5C8.94683 5.49375 8.84058 5.69062 8.89683 5.86562C8.96245 6.06562 8.99995 6.27812 8.99995 6.5Z" fill="#9CA3AF"/>
</g>
<defs>
<clipPath id="clip0_2263_5668">
<path d="M0 0.5H18V16.5H0V0.5Z" fill="white"/>
</clipPath>
</defs>
</svg>
