<svg width="15" height="15" viewBox="0 0 15 15" fill="none" xmlns="http://www.w3.org/2000/svg">
<g clip-path="url(#clip0_2148_2273)">
<path d="M7.48438 14.75C9.34089 14.75 11.1214 14.0125 12.4341 12.6997C13.7469 11.387 14.4844 9.60652 14.4844 7.75C14.4844 5.89348 13.7469 4.11301 12.4341 2.80025C11.1214 1.4875 9.34089 0.75 7.48438 0.75C5.62786 0.75 3.84738 1.4875 2.53463 2.80025C1.22187 4.11301 0.484375 5.89348 0.484375 7.75C0.484375 9.60652 1.22187 11.387 2.53463 12.6997C3.84738 14.0125 5.62786 14.75 7.48438 14.75ZM5.12734 5.26992C5.34336 4.66016 5.92305 4.25 6.57109 4.25H8.16523C9.11953 4.25 9.89062 5.02383 9.89062 5.97539C9.89062 6.59336 9.55976 7.16484 9.02383 7.47383L8.14062 7.97969C8.13516 8.33516 7.84258 8.625 7.48438 8.625C7.1207 8.625 6.82812 8.33242 6.82812 7.96875V7.59961C6.82812 7.36445 6.95391 7.14844 7.15898 7.03086L8.37031 6.33633C8.49883 6.2625 8.57812 6.12578 8.57812 5.97813C8.57812 5.74844 8.39219 5.56523 8.16523 5.56523H6.57109C6.47813 5.56523 6.39609 5.62266 6.36602 5.71016L6.35508 5.74297C6.23477 6.08477 5.85742 6.2625 5.51836 6.14219C5.1793 6.02187 4.99883 5.64453 5.11914 5.30547L5.13008 5.27266L5.12734 5.26992ZM6.60938 10.375C6.60938 10.1429 6.70156 9.92038 6.86566 9.75628C7.02975 9.59219 7.25231 9.5 7.48438 9.5C7.71644 9.5 7.939 9.59219 8.10309 9.75628C8.26719 9.92038 8.35938 10.1429 8.35938 10.375C8.35938 10.6071 8.26719 10.8296 8.10309 10.9937C7.939 11.1578 7.71644 11.25 7.48438 11.25C7.25231 11.25 7.02975 11.1578 6.86566 10.9937C6.70156 10.8296 6.60938 10.6071 6.60938 10.375Z" fill="#9CA3AF"/>
</g>
<defs>
<clipPath id="clip0_2148_2273">
<path d="M0.484375 0.75H14.4844V14.75H0.484375V0.75Z" fill="white"/>
</clipPath>
</defs>
</svg>
