<svg width="23" height="31" viewBox="0 0 23 31" fill="none" xmlns="http://www.w3.org/2000/svg">
<g clip-path="url(#clip0_2222_3453)">
<path d="M4.25 0.75C2.18164 0.75 0.5 2.43164 0.5 4.5V27C0.5 29.0684 2.18164 30.75 4.25 30.75H19.25C21.3184 30.75 23 29.0684 23 27V10.125H15.5C14.4629 10.125 13.625 9.28711 13.625 8.25V0.75H4.25ZM15.5 0.75V8.25H23L15.5 0.75ZM5.1875 4.5H8.9375C9.45312 4.5 9.875 4.92188 9.875 5.4375C9.875 5.95312 9.45312 6.375 8.9375 6.375H5.1875C4.67188 6.375 4.25 5.95312 4.25 5.4375C4.25 4.92188 4.67188 4.5 5.1875 4.5ZM5.1875 8.25H8.9375C9.45312 8.25 9.875 8.67188 9.875 9.1875C9.875 9.70312 9.45312 10.125 8.9375 10.125H5.1875C4.67188 10.125 4.25 9.70312 4.25 9.1875C4.25 8.67188 4.67188 8.25 5.1875 8.25ZM8.36328 23.1211C8.00586 24.3105 6.91016 25.125 5.66797 25.125H5.1875C4.67188 25.125 4.25 24.7031 4.25 24.1875C4.25 23.6719 4.67188 23.25 5.1875 23.25H5.66797C6.08398 23.25 6.44727 22.9805 6.56445 22.582L7.4375 19.6816C7.63672 19.0195 8.24609 18.5625 8.9375 18.5625C9.62891 18.5625 10.2383 19.0137 10.4375 19.6816L11.1172 21.9434C11.5508 21.5801 12.1016 21.375 12.6875 21.375C13.6191 21.375 14.4688 21.9023 14.8848 22.7344L15.1426 23.25H18.3125C18.8281 23.25 19.25 23.6719 19.25 24.1875C19.25 24.7031 18.8281 25.125 18.3125 25.125H14.5625C14.2051 25.125 13.8828 24.9258 13.7246 24.6094L13.209 23.5723C13.1094 23.373 12.9102 23.25 12.6934 23.25C12.4766 23.25 12.2715 23.373 12.1777 23.5723L11.6621 24.6094C11.4922 24.9551 11.123 25.1602 10.7422 25.125C10.3613 25.0898 10.0332 24.8262 9.92773 24.4629L8.9375 21.1992L8.36328 23.1211Z" fill="#3B82F6"/>
</g>
<defs>
<clipPath id="clip0_2222_3453">
<path d="M0.5 0.75H23V30.75H0.5V0.75Z" fill="white"/>
</clipPath>
</defs>
</svg>
