<svg width="17" height="16" viewBox="0 0 17 16" fill="none" xmlns="http://www.w3.org/2000/svg">
<g clip-path="url(#clip0_2148_6785)">
<path d="M15.2375 0.67832C14.5531 -0.0060547 13.4469 -0.0060547 12.7625 0.67832L11.8219 1.61582L14.8813 4.6752L15.8219 3.73457C16.5063 3.0502 16.5063 1.94395 15.8219 1.25957L15.2375 0.67832ZM5.8875 7.55332C5.69687 7.74395 5.55 7.97832 5.46562 8.2377L4.54063 11.0127C4.45 11.2814 4.52188 11.5783 4.72188 11.7814C4.92188 11.9846 5.21875 12.0533 5.49062 11.9627L8.26562 11.0377C8.52188 10.9533 8.75625 10.8064 8.95 10.6158L14.1781 5.38457L11.1156 2.32207L5.8875 7.55332ZM3.5 2.0002C1.84375 2.0002 0.5 3.34395 0.5 5.0002V13.0002C0.5 14.6564 1.84375 16.0002 3.5 16.0002H11.5C13.1562 16.0002 14.5 14.6564 14.5 13.0002V10.0002C14.5 9.44707 14.0531 9.0002 13.5 9.0002C12.9469 9.0002 12.5 9.44707 12.5 10.0002V13.0002C12.5 13.5533 12.0531 14.0002 11.5 14.0002H3.5C2.94688 14.0002 2.5 13.5533 2.5 13.0002V5.0002C2.5 4.44707 2.94688 4.0002 3.5 4.0002H6.5C7.05312 4.0002 7.5 3.55332 7.5 3.0002C7.5 2.44707 7.05312 2.0002 6.5 2.0002H3.5Z" fill="#8B5CF6"/>
</g>
<defs>
<clipPath id="clip0_2148_6785">
<path d="M0.5 0H16.5V16H0.5V0Z" fill="white"/>
</clipPath>
</defs>
</svg>
