<svg width="17" height="16" viewBox="0 0 17 16" fill="none" xmlns="http://www.w3.org/2000/svg">
<g clip-path="url(#clip0_2148_6824)">
<path d="M16.2217 0.175119C16.5373 0.393869 16.703 0.771994 16.6436 1.15012L14.6436 14.1501C14.5967 14.4532 14.4123 14.7189 14.1436 14.8689C13.8748 15.0189 13.553 15.0376 13.2686 14.9189L9.53109 13.3657L7.39046 15.6814C7.11234 15.9845 6.67484 16.0845 6.29046 15.9345C5.90609 15.7845 5.65609 15.4126 5.65609 15.0001V12.3876C5.65609 12.2626 5.70296 12.1439 5.78734 12.0532L11.0248 6.33762C11.2061 6.14074 11.1998 5.83762 11.0123 5.65012C10.8248 5.46262 10.5217 5.45012 10.3248 5.62824L3.96859 11.2751L1.20921 9.89387C0.877962 9.72824 0.665462 9.39699 0.656087 9.02824C0.646712 8.65949 0.840462 8.31574 1.15921 8.13137L15.1592 0.131369C15.4936 -0.0592555 15.9061 -0.0405055 16.2217 0.175119Z" fill="white"/>
</g>
<defs>
<clipPath id="clip0_2148_6824">
<path d="M0.65625 0H16.6562V16H0.65625V0Z" fill="white"/>
</clipPath>
</defs>
</svg>
