<svg width="30" height="31" viewBox="0 0 30 31" fill="none" xmlns="http://www.w3.org/2000/svg">
<g clip-path="url(#clip0_2222_3463)">
<path d="M15 30.75C18.9782 30.75 22.7936 29.1696 25.6066 26.3566C28.4196 23.5436 30 19.7282 30 15.75C30 11.7718 28.4196 7.95644 25.6066 5.1434C22.7936 2.33035 18.9782 0.75 15 0.75C11.0218 0.75 7.20644 2.33035 4.3934 5.1434C1.58035 7.95644 0 11.7718 0 15.75C0 19.7282 1.58035 23.5436 4.3934 26.3566C7.20644 29.1696 11.0218 30.75 15 30.75ZM21.6211 12.9961L14.1211 20.4961C13.5703 21.0469 12.6797 21.0469 12.1348 20.4961L8.38477 16.7461C7.83398 16.1953 7.83398 15.3047 8.38477 14.7598C8.93555 14.2148 9.82617 14.209 10.3711 14.7598L13.125 17.5137L19.6289 11.0039C20.1797 10.4531 21.0703 10.4531 21.6152 11.0039C22.1602 11.5547 22.166 12.4453 21.6152 12.9902L21.6211 12.9961Z" fill="#22C55E"/>
</g>
<defs>
<clipPath id="clip0_2222_3463">
<path d="M0 0.75H30V30.75H0V0.75Z" fill="white"/>
</clipPath>
</defs>
</svg>
