<svg width="31" height="24" viewBox="0 0 31 24" fill="none" xmlns="http://www.w3.org/2000/svg">
<g clip-path="url(#clip0_2148_2296)">
<path d="M6.875 22.5C3.14844 22.5 0.125 19.4766 0.125 15.75C0.125 12.8062 2.00937 10.3031 4.63437 9.37969C4.62969 9.25313 4.625 9.12656 4.625 9C4.625 4.85625 7.98125 1.5 12.125 1.5C14.9047 1.5 17.3281 3.00937 18.6266 5.25937C19.3391 4.78125 20.2016 4.5 21.125 4.5C23.6094 4.5 25.625 6.51562 25.625 9C25.625 9.57187 25.5172 10.1156 25.325 10.6219C28.0625 11.175 30.125 13.5984 30.125 16.5C30.125 19.8141 27.4391 22.5 24.125 22.5H6.875ZM10.5781 12.3281C10.1375 12.7688 10.1375 13.4812 10.5781 13.9172C11.0188 14.3531 11.7312 14.3578 12.1672 13.9172L13.9953 12.0891V18.375C13.9953 18.9984 14.4969 19.5 15.1203 19.5C15.7437 19.5 16.2453 18.9984 16.2453 18.375V12.0891L18.0734 13.9172C18.5141 14.3578 19.2266 14.3578 19.6625 13.9172C20.0984 13.4766 20.1031 12.7641 19.6625 12.3281L15.9125 8.57812C15.4719 8.1375 14.7594 8.1375 14.3234 8.57812L10.5734 12.3281H10.5781Z" fill="#9CA3AF"/>
</g>
<defs>
<clipPath id="clip0_2148_2296">
<path d="M0.125 0H30.125V24H0.125V0Z" fill="white"/>
</clipPath>
</defs>
</svg>
