<svg width="21" height="21" viewBox="0 0 21 21" fill="none" xmlns="http://www.w3.org/2000/svg">
<g clip-path="url(#clip0_2148_4043)">
<path d="M0.296875 3C0.296875 1.62109 1.41797 0.5 2.79688 0.5H9.04688V5.5C9.04688 6.19141 9.60547 6.75 10.2969 6.75H15.2969V12.375H7.17188C5.79297 12.375 4.67188 13.4961 4.67188 14.875V20.5H2.79688C1.41797 20.5 0.296875 19.3789 0.296875 18V3ZM15.2969 5.5H10.2969V0.5L15.2969 5.5ZM7.17188 14.25H8.42188C9.62891 14.25 10.6094 15.2305 10.6094 16.4375C10.6094 17.6445 9.62891 18.625 8.42188 18.625H7.79688V19.875C7.79688 20.2188 7.51562 20.5 7.17188 20.5C6.82812 20.5 6.54688 20.2188 6.54688 19.875V18V14.875C6.54688 14.5312 6.82812 14.25 7.17188 14.25ZM8.42188 17.375C8.94141 17.375 9.35938 16.957 9.35938 16.4375C9.35938 15.918 8.94141 15.5 8.42188 15.5H7.79688V17.375H8.42188ZM12.1719 14.25H13.4219C14.457 14.25 15.2969 15.0898 15.2969 16.125V18.625C15.2969 19.6602 14.457 20.5 13.4219 20.5H12.1719C11.8281 20.5 11.5469 20.2188 11.5469 19.875V14.875C11.5469 14.5312 11.8281 14.25 12.1719 14.25ZM13.4219 19.25C13.7656 19.25 14.0469 18.9688 14.0469 18.625V16.125C14.0469 15.7812 13.7656 15.5 13.4219 15.5H12.7969V19.25H13.4219ZM16.5469 14.875C16.5469 14.5312 16.8281 14.25 17.1719 14.25H19.0469C19.3906 14.25 19.6719 14.5312 19.6719 14.875C19.6719 15.2188 19.3906 15.5 19.0469 15.5H17.7969V16.75H19.0469C19.3906 16.75 19.6719 17.0312 19.6719 17.375C19.6719 17.7188 19.3906 18 19.0469 18H17.7969V19.875C17.7969 20.2188 17.5156 20.5 17.1719 20.5C16.8281 20.5 16.5469 20.2188 16.5469 19.875V17.375V14.875Z" fill="#9CA3AF"/>
</g>
<defs>
<clipPath id="clip0_2148_4043">
<path d="M0.296875 0.5H20.2969V20.5H0.296875V0.5Z" fill="white"/>
</clipPath>
</defs>
</svg>
