<svg width="30" height="31" viewBox="0 0 30 31" fill="none" xmlns="http://www.w3.org/2000/svg">
<g clip-path="url(#clip0_2222_3480)">
<path d="M15 2.625C15.8321 2.625 16.5996 3.06445 17.0215 3.78516L29.6778 25.3477C30.1055 26.0742 30.1055 26.9707 29.6895 27.6973C29.2735 28.4238 28.4942 28.875 27.6563 28.875H2.34378C1.50589 28.875 0.726597 28.4238 0.310581 27.6973C-0.105434 26.9707 -0.0995748 26.0684 0.3223 25.3477L12.9785 3.78516C13.4004 3.06445 14.168 2.625 15 2.625ZM15 10.125C14.2207 10.125 13.5938 10.752 13.5938 11.5312V18.0938C13.5938 18.873 14.2207 19.5 15 19.5C15.7793 19.5 16.4063 18.873 16.4063 18.0938V11.5312C16.4063 10.752 15.7793 10.125 15 10.125ZM16.875 23.25C16.875 22.7527 16.6775 22.2758 16.3259 21.9242C15.9742 21.5725 15.4973 21.375 15 21.375C14.5028 21.375 14.0258 21.5725 13.6742 21.9242C13.3226 22.2758 13.125 22.7527 13.125 23.25C13.125 23.7473 13.3226 24.2242 13.6742 24.5758C14.0258 24.9275 14.5028 25.125 15 25.125C15.4973 25.125 15.9742 24.9275 16.3259 24.5758C16.6775 24.2242 16.875 23.7473 16.875 23.25Z" fill="#EF4444"/>
</g>
<defs>
<clipPath id="clip0_2222_3480">
<path d="M0 0.75H30V30.75H0V0.75Z" fill="white"/>
</clipPath>
</defs>
</svg>
